<mxfile host="app.diagrams.net" agent="Mozilla/5.0 (Windows NT 10.0; Win64; x64) AppleWebKit/537.36 (KHTML, like Gecko) Chrome/141.0.0.0 Safari/537.36" version="28.2.7">
  <diagram name="Page-1" id="8a1I8O3AFVMFCMC7S-ta">
    <mxGraphModel dx="1601" dy="703" grid="1" gridSize="10" guides="1" tooltips="1" connect="1" arrows="1" fold="1" page="1" pageScale="1" pageWidth="850" pageHeight="1100" math="0" shadow="0">
      <root>
        <mxCell id="0" />
        <mxCell id="1" parent="0" />
        <mxCell id="05khATB_9IBrvkwJIYue-5" value="" style="edgeStyle=orthogonalEdgeStyle;rounded=0;orthogonalLoop=1;jettySize=auto;html=1;" edge="1" parent="1" source="05khATB_9IBrvkwJIYue-1" target="05khATB_9IBrvkwJIYue-4">
          <mxGeometry relative="1" as="geometry" />
        </mxCell>
        <mxCell id="05khATB_9IBrvkwJIYue-1" value="ST VS DEF" style="rounded=0;whiteSpace=wrap;html=1;" vertex="1" parent="1">
          <mxGeometry x="320" y="10" width="140" height="60" as="geometry" />
        </mxCell>
        <mxCell id="05khATB_9IBrvkwJIYue-7" value="" style="edgeStyle=orthogonalEdgeStyle;rounded=0;orthogonalLoop=1;jettySize=auto;html=1;" edge="1" parent="1" source="05khATB_9IBrvkwJIYue-4" target="05khATB_9IBrvkwJIYue-6">
          <mxGeometry relative="1" as="geometry" />
        </mxCell>
        <mxCell id="05khATB_9IBrvkwJIYue-10" value="" style="edgeStyle=orthogonalEdgeStyle;rounded=0;orthogonalLoop=1;jettySize=auto;html=1;" edge="1" parent="1" source="05khATB_9IBrvkwJIYue-4" target="05khATB_9IBrvkwJIYue-9">
          <mxGeometry relative="1" as="geometry" />
        </mxCell>
        <mxCell id="05khATB_9IBrvkwJIYue-4" value="ST WIN" style="rhombus;whiteSpace=wrap;html=1;rounded=0;" vertex="1" parent="1">
          <mxGeometry x="302.5" y="90" width="175" height="80" as="geometry" />
        </mxCell>
        <mxCell id="05khATB_9IBrvkwJIYue-13" value="" style="edgeStyle=orthogonalEdgeStyle;rounded=0;orthogonalLoop=1;jettySize=auto;html=1;" edge="1" parent="1" source="05khATB_9IBrvkwJIYue-6" target="05khATB_9IBrvkwJIYue-12">
          <mxGeometry relative="1" as="geometry" />
        </mxCell>
        <mxCell id="05khATB_9IBrvkwJIYue-6" value="ST VS MF" style="whiteSpace=wrap;html=1;rounded=0;" vertex="1" parent="1">
          <mxGeometry x="130" y="100" width="120" height="60" as="geometry" />
        </mxCell>
        <mxCell id="05khATB_9IBrvkwJIYue-8" value="YES" style="text;html=1;whiteSpace=wrap;strokeColor=none;fillColor=none;align=center;verticalAlign=middle;rounded=0;" vertex="1" parent="1">
          <mxGeometry x="250" y="100" width="60" height="30" as="geometry" />
        </mxCell>
        <mxCell id="05khATB_9IBrvkwJIYue-15" value="" style="edgeStyle=orthogonalEdgeStyle;rounded=0;orthogonalLoop=1;jettySize=auto;html=1;" edge="1" parent="1" source="05khATB_9IBrvkwJIYue-9" target="05khATB_9IBrvkwJIYue-14">
          <mxGeometry relative="1" as="geometry" />
        </mxCell>
        <mxCell id="05khATB_9IBrvkwJIYue-9" value="DEF VS ST" style="whiteSpace=wrap;html=1;rounded=0;" vertex="1" parent="1">
          <mxGeometry x="530" y="100" width="120" height="60" as="geometry" />
        </mxCell>
        <mxCell id="05khATB_9IBrvkwJIYue-11" value="NO" style="text;html=1;whiteSpace=wrap;strokeColor=none;fillColor=none;align=center;verticalAlign=middle;rounded=0;" vertex="1" parent="1">
          <mxGeometry x="470" y="100" width="60" height="30" as="geometry" />
        </mxCell>
        <mxCell id="05khATB_9IBrvkwJIYue-12" value="ST WIN" style="rhombus;whiteSpace=wrap;html=1;rounded=0;" vertex="1" parent="1">
          <mxGeometry x="110" y="180" width="160" height="80" as="geometry" />
        </mxCell>
        <mxCell id="05khATB_9IBrvkwJIYue-14" value="" style="rhombus;whiteSpace=wrap;html=1;rounded=0;" vertex="1" parent="1">
          <mxGeometry x="510" y="180" width="160" height="80" as="geometry" />
        </mxCell>
      </root>
    </mxGraphModel>
  </diagram>
</mxfile>
